<svg width="42" height="48" viewBox="0 0 42 48" fill="none" xmlns="http://www.w3.org/2000/svg">
<path d="M41.516 25.427C41.831 24.003 41.99 22.511 41.99 20.991C41.99 19.471 41.83 17.979 41.518 16.561C39.462 6.966 30.829 0 20.99 0C11.157 0 2.527 6.965 0.474 16.554C0.159 17.978 0 19.471 0 20.99C0 22.509 0.16 24.002 0.472 25.419C1.852 31.859 6.198 37.101 11.875 39.861C11.653 40.5284 11.2446 41.1184 10.698 41.561C10.038 42.115 9.188 42.421 8.305 42.421C8.03978 42.421 7.78543 42.5264 7.59789 42.7139C7.41036 42.9014 7.305 43.1558 7.305 43.421V45.998H5.412C5.14678 45.998 4.89243 46.1034 4.70489 46.2909C4.51736 46.4784 4.412 46.7328 4.412 46.998C4.412 47.2632 4.51736 47.5176 4.70489 47.7051C4.89243 47.8926 5.14678 47.998 5.412 47.998H37.795C38.0602 47.998 38.3146 47.8926 38.5021 47.7051C38.6896 47.5176 38.795 47.2632 38.795 46.998C38.795 46.7328 38.6896 46.4784 38.5021 46.2909C38.3146 46.1034 38.0602 45.998 37.795 45.998H35.901V43.421C35.901 43.1558 35.7956 42.9014 35.6081 42.7139C35.4206 42.5264 35.1662 42.421 34.901 42.421C34.0241 42.4209 33.1743 42.1169 32.4963 41.5608C31.8182 41.0048 31.3538 40.2309 31.182 39.371L31.172 39.319C36.33 36.444 40.225 31.456 41.516 25.427ZM2.299 24.21C2.117 23.164 1.999 22.09 1.999 20.99C1.999 19.89 2.117 18.818 2.299 17.77H9.449C9.15153 18.8176 8.99878 19.901 8.995 20.99C8.995 22.107 9.16 23.184 9.447 24.21H2.299ZM10.996 20.99C10.996 15.478 15.482 10.992 20.995 10.992C26.508 10.992 30.993 15.478 30.993 20.99C30.993 26.502 26.508 30.99 20.995 30.99C15.482 30.99 10.996 26.505 10.996 20.992V20.99ZM32.541 17.77H39.691C39.873 18.816 39.991 19.89 39.991 20.99C39.991 22.09 39.873 23.162 39.691 24.21H32.541C32.8378 23.1623 32.9899 22.0789 32.993 20.99C32.993 19.873 32.828 18.796 32.541 17.77ZM20.991 2C29.469 2 36.946 7.72 39.246 15.77H31.781C29.834 11.765 25.738 8.992 20.995 8.992C16.252 8.992 12.155 11.765 10.209 15.77H2.744C5.04 7.725 12.515 2 20.991 2ZM33.901 44.334V45.998H9.305V44.334C10.2853 44.1662 11.2039 43.7426 11.968 43.106C12.7619 42.463 13.367 41.6171 13.719 40.658C16.0442 41.5297 18.5068 41.9774 20.99 41.98C23.934 41.98 26.764 41.346 29.348 40.215C29.6444 41.2594 30.2285 42.1994 31.0336 42.9277C31.8386 43.656 32.8322 44.1433 33.901 44.334ZM20.991 39.98C12.516 39.98 5.043 34.26 2.744 26.21H10.208C12.154 30.215 16.251 32.988 20.995 32.988C25.738 32.988 29.835 30.215 31.781 26.21H39.246C36.949 34.257 29.472 39.98 20.991 39.98Z" fill="#0B1F83"/>
<path d="M20.9951 28.99C25.4051 28.99 28.9921 25.401 28.9921 20.991C28.9921 16.582 25.4051 12.994 20.9951 12.994C16.5851 12.994 12.9971 16.582 12.9971 20.991C12.9971 25.401 16.5851 28.989 20.9951 28.989V28.99ZM20.9951 14.994C22.585 14.9959 24.1093 15.6283 25.2335 16.7525C26.3578 17.8768 26.9902 19.4011 26.9921 20.991C26.9907 22.5813 26.3586 24.1061 25.2342 25.2308C24.1099 26.3555 22.5854 26.9882 20.9951 26.99C19.4049 26.9882 17.8803 26.3556 16.7559 25.2312C15.6314 24.1068 14.9989 22.5822 14.9971 20.992C14.9989 19.4018 15.6314 17.8773 16.7559 16.7528C17.8803 15.6284 19.4049 14.9959 20.9951 14.994Z" fill="#0B1F83"/>
<path d="M17.9969 21.991C18.2621 21.991 18.5165 21.8856 18.704 21.6981C18.8916 21.5106 18.9969 21.2562 18.9969 20.991C18.9977 20.4614 19.2085 19.9538 19.5831 19.5794C19.9576 19.205 20.4654 18.9945 20.9949 18.994C21.2601 18.994 21.5145 18.8886 21.702 18.7011C21.8896 18.5136 21.9949 18.2592 21.9949 17.994C21.9949 17.7288 21.8896 17.4744 21.702 17.2869C21.5145 17.0993 21.2601 16.994 20.9949 16.994C19.9351 16.995 18.9189 17.4165 18.1694 18.1658C17.4199 18.9151 16.9982 19.9311 16.9969 20.991C16.9969 21.2562 17.1023 21.5106 17.2898 21.6981C17.4773 21.8856 17.7317 21.991 17.9969 21.991ZM7.78792 11.93C7.89105 12.0114 8.00922 12.0717 8.13566 12.1074C8.2621 12.1431 8.39434 12.1535 8.52482 12.1381C8.6553 12.1227 8.78146 12.0817 8.8961 12.0175C9.01074 11.9533 9.1116 11.8672 9.19292 11.764C10.3816 10.252 11.8478 8.9806 13.5129 8.01798C13.6304 7.95423 13.7339 7.86758 13.8173 7.76314C13.9008 7.65871 13.9624 7.53861 13.9986 7.40994C14.0348 7.28128 14.0449 7.14666 14.0282 7.01404C14.0114 6.88143 13.9683 6.75351 13.9013 6.63784C13.8343 6.52218 13.7448 6.42112 13.6381 6.34064C13.5314 6.26016 13.4096 6.20188 13.28 6.16927C13.1504 6.13665 13.0155 6.13035 12.8834 6.15074C12.7513 6.17113 12.6247 6.2178 12.5109 6.28798C10.6263 7.37654 8.96668 8.81457 7.62092 10.525C7.53942 10.6282 7.47908 10.7465 7.44335 10.8731C7.40763 10.9996 7.39723 11.132 7.41274 11.2626C7.42825 11.3932 7.46938 11.5195 7.53376 11.6342C7.59813 11.7489 7.6845 11.8487 7.78792 11.93Z" fill="#0B1F83"/>
</svg>
