<svg width="48" height="48" viewBox="0 0 48 48" fill="none" xmlns="http://www.w3.org/2000/svg">
<path d="M35.6512 28.4351L31.9688 25.6179C30.7085 24.6579 28.9331 24.7752 27.81 25.8926L26.371 27.3317C25.2719 27.0589 24.2497 26.5388 23.3822 25.811L23.2566 25.7051C22.907 25.4112 22.5836 25.0875 22.29 24.7376L22.1878 24.6157C21.4593 23.7479 20.9389 22.7249 20.6663 21.6251L22.1044 20.187C23.2211 19.0651 23.3395 17.2915 22.3819 16.0311L19.5647 12.3523C18.6388 11.1379 17.0014 10.7159 15.6038 11.3314L15.1857 11.5189C12.7252 12.6029 11.1142 15.0128 11.0532 17.7007C10.962 22.153 12.4908 26.487 15.3554 29.8967L15.5429 30.1151C16.2551 30.9624 17.0393 31.7466 17.8866 32.4588L18.105 32.6463C21.417 35.4254 25.6016 36.9497 29.925 36.9523C30.05 36.9523 30.1779 36.9523 30.3085 36.9523C32.9975 36.8892 35.4069 35.2751 36.4884 32.8123L36.6759 32.3942C37.2889 30.9962 36.8655 29.3602 35.6512 28.4351ZM34.4391 31.4182V31.4173L34.2516 31.8354C33.5505 33.4271 31.9918 34.4693 30.2531 34.5092C30.1416 34.5092 30.03 34.5092 29.9194 34.5092C26.1707 34.5074 22.5422 33.1864 19.6697 30.7779L19.4513 30.5904C18.7114 29.9685 18.0267 29.2837 17.4047 28.5439L17.2172 28.3245C14.7311 25.3652 13.4051 21.6034 13.486 17.7392C13.5257 16.0002 14.5679 14.4412 16.1597 13.7398L16.5779 13.5523C16.9493 13.3913 17.3826 13.5066 17.625 13.8308L20.4422 17.5095C20.6626 17.7983 20.6358 18.2055 20.3794 18.4629L18.4782 20.3651C18.2009 20.6422 18.074 21.0357 18.1369 21.4226C18.4232 23.1779 19.1782 24.8234 20.3222 26.1851L20.4244 26.306C20.808 26.7627 21.2306 27.1852 21.6872 27.5689L21.8128 27.6748C23.1742 28.8172 24.8186 29.5712 26.5725 29.8573C26.9597 29.9205 27.3536 29.7935 27.631 29.516L29.5331 27.6139C29.7908 27.3579 30.1976 27.3311 30.4866 27.551L34.1691 30.3748C34.4881 30.6192 34.5995 31.0497 34.4391 31.4182Z" fill="white"/>
<path d="M40.9687 7.03132C36.4784 2.51557 30.3682 -0.016327 24 7.92373e-05C11.8381 -0.000483262 1.59827 9.09625 0.16596 21.1735C-0.425883 26.241 0.60274 31.3658 3.10408 35.8125L1.07908 42.7847C0.565428 44.5544 1.58364 46.4054 3.35336 46.9191C3.96086 47.0954 4.60595 47.0954 5.21345 46.9191L12.1875 44.8959C15.8027 46.9311 19.8814 48.0002 24.03 48C37.2848 47.9814 48.0148 37.2213 47.9963 23.9665C47.9874 17.6138 45.4602 11.5238 40.9687 7.03132ZM39.2465 39.2475C35.8339 42.6856 31.3531 44.86 26.5406 45.4134C21.8235 45.9658 17.0556 44.954 12.9694 42.5334C12.6791 42.3604 12.3301 42.3156 12.0056 42.4097L4.53376 44.58C4.05686 44.7182 3.5582 44.4436 3.42002 43.9667C3.37267 43.8033 3.37267 43.6297 3.42002 43.4662L5.59032 35.9934C5.68445 35.669 5.63964 35.3199 5.46657 35.0297C3.04605 30.9435 2.03421 26.1756 2.58658 21.4585C3.87442 10.6086 13.074 2.43692 24 2.43757C35.9086 2.43757 45.5624 12.0914 45.5625 23.9999C45.5625 29.719 43.2906 35.2037 39.2465 39.2475Z" fill="white"/>
</svg>
